<svg width="56" height="56" viewBox="0 0 56 56" fill="none" xmlns="http://www.w3.org/2000/svg">
<mask id="path-1-inside-1" fill="white">
<path fill-rule="evenodd" clip-rule="evenodd" d="M28.3826 0.279274L33.1777 2.89762L37.9368 0.298928V7.28748H18.8595V0.315909L23.5875 2.89762L28.3826 0.279274Z"/>
</mask>
<path d="M33.1777 2.89762L32.2192 4.65298L33.1777 5.17636L34.1362 4.65298L33.1777 2.89762ZM28.3826 0.279274L29.3411 -1.47608L28.3826 -1.99947L27.4241 -1.47608L28.3826 0.279274ZM37.9368 0.298928H39.9368V-3.07191L36.9783 -1.45643L37.9368 0.298928ZM37.9368 7.28748V9.28748H39.9368V7.28748H37.9368ZM18.8595 7.28748H16.8595V9.28748H18.8595V7.28748ZM18.8595 0.315909L19.818 -1.43945L16.8595 -3.05492V0.315909H18.8595ZM23.5875 2.89762L22.629 4.65298L23.5875 5.17636L24.546 4.65298L23.5875 2.89762ZM34.1362 1.14227L29.3411 -1.47608L27.4241 2.03463L32.2192 4.65298L34.1362 1.14227ZM36.9783 -1.45643L32.2192 1.14227L34.1362 4.65298L38.8953 2.05428L36.9783 -1.45643ZM35.9368 0.298928V7.28748H39.9368V0.298928H35.9368ZM37.9368 5.28748H18.8595V9.28748H37.9368V5.28748ZM20.8595 7.28748V0.315909H16.8595V7.28748H20.8595ZM17.901 2.07126L22.629 4.65298L24.546 1.14227L19.818 -1.43945L17.901 2.07126ZM24.546 4.65298L29.3411 2.03463L27.4241 -1.47608L22.629 1.14227L24.546 4.65298Z" fill="black" mask="url(#path-1-inside-1)"/>
<path d="M11.5888 55.2793C6.62645 55.2793 3.41896 54.2355 1.85833 52.1297C-0.41121 49.0693 1.95326 45.0284 2.71877 43.8772C2.64823 36.3954 5.26699 30.5377 10.5054 26.4625C20.9613 18.3297 38.1492 20.2464 38.8668 20.3318C39.5139 20.4096 40.1836 20.893 40.1836 21.4656V22.8021C40.1836 23.4334 39.5983 23.9457 38.8772 23.9457C38.1562 23.9457 37.5709 23.4334 37.5709 22.8021V22.5025C33.2165 22.2349 20.505 21.8803 12.417 28.1795C7.70374 31.8506 5.29138 37.2318 5.42898 44.1707C5.43333 44.3994 5.31315 44.6236 5.17032 44.8157C4.3961 45.8625 2.66826 48.9976 4.07561 50.89C5.63625 52.9851 10.8459 53.5265 18.7684 52.4156C32.4475 50.495 36.329 44.1562 37.1816 39.1775C37.2879 38.5524 37.9471 38.1223 38.6639 38.2154C39.3771 38.3091 39.8683 38.8916 39.7612 39.5161C38.7797 45.2503 34.4096 52.5353 19.1708 54.6732C16.2977 55.0772 13.773 55.2793 11.5888 55.2793Z" fill="black"/>
<path d="M30.4731 44.6381C27.9414 44.6373 25.6031 43.4883 23.5208 41.2201C21.0527 38.5325 20.3229 35.8495 21.3531 33.2458C24.1191 26.2559 39.2647 22.3446 43.4833 21.3794C43.3919 18.7711 43.8308 17.0961 44.8436 16.1476C45.4236 15.6063 46.1778 15.3196 47.0269 15.3196C48.9847 15.3196 50.9921 16.8849 51.8578 17.6526C53.8147 17.8608 54.7892 18.6888 55.2682 19.3765C56.693 21.4244 55.2778 24.2865 55.1123 24.606C54.9277 24.9621 54.5488 25.2098 54.1073 25.2655L49.2338 25.8747C47.4572 29.5366 39.5756 44.6381 30.4731 44.6381ZM47.0269 17.6069C46.9015 17.6069 46.8371 17.6313 46.7517 17.7106C46.5445 17.905 45.887 18.8024 46.1447 22.1868C46.1874 22.7457 45.7589 23.2504 45.1354 23.377C39.9605 24.4238 26.0455 28.3732 23.8221 33.9961C23.0966 35.832 23.6636 37.7251 25.5569 39.7867C27.1193 41.4877 28.7722 42.35 30.4731 42.3508C37.2686 42.3515 44.7818 29.3963 47.1027 24.404C47.2778 24.0273 47.6688 23.7605 48.1286 23.7025L52.9725 23.0964C53.239 22.3553 53.4933 21.2185 53.0352 20.5644C52.7548 20.1626 52.1321 19.9376 51.1863 19.8965C50.8397 19.8812 50.514 19.7455 50.2823 19.5206C49.4846 18.749 47.8987 17.6069 47.0269 17.6069Z" fill="black"/>
<path d="M9.35086 29.2118C9.3317 29.2118 9.31341 29.2118 9.29425 29.2111C8.57315 29.1844 8.01404 28.6514 8.04452 28.0202C8.41552 20.3768 24.0854 16.2871 28.6986 15.2472C28.6271 13.0987 28.9241 10.6215 30.9454 9.87511C33.0809 9.08371 35.5333 10.9417 36.5313 11.8224C38.3402 12.0244 39.2468 12.7983 39.6944 13.4418C41.0286 15.3585 39.7127 18.0217 39.5577 18.319C39.373 18.6743 38.9951 18.9229 38.5535 18.9777L34.1494 19.529C33.9317 19.9674 33.5982 20.6223 33.1627 21.4274C32.8536 21.9977 32.0724 22.2402 31.4227 21.9703C30.7704 21.6996 30.4935 21.0172 30.8018 20.4469C31.5751 19.0197 32.0201 18.0666 32.0245 18.0567C32.1995 17.6801 32.5897 17.4132 33.0504 17.3561L37.4135 16.8102C37.6539 16.1179 37.8316 15.158 37.4614 14.6296C37.2246 14.2911 36.6846 14.1013 35.8581 14.0647C35.5115 14.0494 35.1858 13.9137 34.9524 13.688C33.9108 12.6801 32.3903 11.8216 31.9618 11.9817C31.9522 11.9855 31.0822 12.4132 31.36 16.0569C31.4027 16.6165 30.9751 17.1212 30.3506 17.2478C24.9659 18.3373 10.9315 22.4148 10.6555 28.117C10.6258 28.7315 10.0458 29.2118 9.35086 29.2118Z" fill="black"/>
<path d="M14.2109 50.1878C10.7657 50.1878 7.78373 49.6176 7.54946 49.5711C6.84666 49.4331 6.40337 48.8225 6.561 48.2058C6.71776 47.5891 7.42231 47.2042 8.12077 47.3391C10.8092 47.8651 18.4243 48.6861 21.3252 46.2155C21.8416 45.7741 22.6699 45.7848 23.1724 46.236C23.6749 46.6888 23.6635 47.413 23.1462 47.8529C20.9812 49.6991 17.3975 50.1878 14.2109 50.1878Z" fill="black"/>
</svg>
