<svg width="41" height="41" viewBox="0 0 41 41" fill="none" xmlns="http://www.w3.org/2000/svg">
<g clip-path="url(#clip0)">
<path fill-rule="evenodd" clip-rule="evenodd" d="M18.662 26.5757C19.5287 27.3557 20.9287 27.3557 21.7953 26.5757L35.9287 13.8557C36.7953 13.0757 36.7953 11.8157 35.9287 11.0357L24.9287 1.13573C24.0842 0.335727 22.6842 0.335727 21.8176 1.11573L7.662 13.8557C6.79533 14.6357 6.79533 15.8957 7.662 16.6757L18.662 26.5757ZM23.3731 5.35573L31.2398 12.4357L20.2398 22.3357L12.3731 15.2557L23.3731 5.35573ZM38.8176 27.3557L34.1064 23.1157C33.7064 22.7557 33.1287 22.5357 32.5509 22.5357H31.9509L27.5064 26.5357H31.7509L35.6842 30.5357H4.57311L8.52866 26.5357H13.0842L8.63977 22.5357H7.70644C7.10644 22.5357 6.55088 22.7557 6.12866 23.1157L1.41755 27.3557C0.595329 28.1157 0.128662 29.1357 0.128662 30.1957V36.5357C0.128662 38.7357 2.12866 40.5357 4.57311 40.5357H35.6842C38.1287 40.5357 40.1287 38.7557 40.1287 36.5357V30.1957C40.1287 29.1357 39.662 28.1157 38.8176 27.3557Z" fill="#1D1D1D"/>
</g>
<defs>
<clipPath id="clip0">
<rect x="0.128662" y="0.535736" width="40" height="40" fill="white"/>
</clipPath>
</defs>
</svg>
